<?xml version="1.0" encoding="UTF-8" standalone="no"?>
<!-- Created with Inkscape (http://www.inkscape.org/) -->

<svg
   width="1250.6562"
   height="743.15039"
   viewBox="0 0 330.90279 196.62521"
   version="1.1"
   id="svg1"
   xml:space="preserve"
   inkscape:version="1.4.3 (0d15f75042, 2025-12-25)"
   sodipodi:docname="pokemontcg.svg"
   inkscape:export-filename="pokemontcg.png"
   inkscape:export-xdpi="95.999977"
   inkscape:export-ydpi="95.999977"
   xmlns:inkscape="http://www.inkscape.org/namespaces/inkscape"
   xmlns:sodipodi="http://sodipodi.sourceforge.net/DTD/sodipodi-0.dtd"
   xmlns="http://www.w3.org/2000/svg"
   xmlns:svg="http://www.w3.org/2000/svg"><sodipodi:namedview
     id="namedview1"
     pagecolor="#ffffff"
     bordercolor="#000000"
     borderopacity="0.25"
     inkscape:showpageshadow="2"
     inkscape:pageopacity="0.0"
     inkscape:pagecheckerboard="0"
     inkscape:deskcolor="#d1d1d1"
     inkscape:document-units="px"
     inkscape:zoom="0.16"
     inkscape:cx="-33375"
     inkscape:cy="28884.375"
     inkscape:window-width="1920"
     inkscape:window-height="995"
     inkscape:window-x="0"
     inkscape:window-y="0"
     inkscape:window-maximized="1"
     inkscape:current-layer="layer1"
     showguides="false"><inkscape:page
       x="0"
       y="0"
       width="330.9028"
       height="196.62521"
       id="page3"
       margin="0"
       bleed="0" /></sodipodi:namedview><defs
     id="defs1" /><g
     inkscape:label="Layer 1"
     inkscape:groupmode="layer"
     id="layer1"
     transform="translate(11909.854,-7421.4668)"><path
       style="fill:#000000"
       d="m -11775.479,7617.7495 c -9.91,-0.8603 -16.893,-2.7828 -24.607,-6.7746 -6.185,-3.2009 -13.226,-9.1327 -15.548,-13.099 -4.234,-7.2308 -3.418,-16.7782 2.232,-26.1098 2.233,-3.6877 4.543,-6.4776 7.874,-9.5092 2.955,-2.6889 7.868,-6.0968 13.248,-9.1879 9.382,-5.3913 17.16,-11.5465 23.018,-18.2153 2.829,-3.2204 3.856,-3.9803 6.338,-4.6929 2.08,-0.597 6.232,-0.4044 10.728,0.4978 9.965,1.9995 24.1,2.757 33.337,1.7865 4.788,-0.5029 7.318,-0.099 12.568,2.009 4.412,1.7708 6.147,2.6189 10.187,4.9786 18.408,10.7526 30.254,26.5188 32.705,43.5262 1.128,7.8287 0.01,14.4592 -3.248,19.3541 -1.738,2.6071 -2.784,3.7584 -5.134,5.6505 -4.287,3.4527 -9.093,5.4408 -16.356,6.7665 -2.863,0.5225 -4.084,0.5647 -17.889,0.6191 -8.149,0.032 -16.901,0.1981 -19.447,0.369 -10.108,0.6783 -16.956,1.1545 -20.109,1.3986 -13.472,1.0429 -22.88,1.2421 -29.897,0.6328 z m 32.94,-21.1435 c 5.136,-0.697 7.323,-1.5115 8.978,-3.3429 1.515,-1.677 2.091,-3.1981 2.098,-5.5417 0.01,-3.3767 -1.668,-6.0505 -4.291,-6.8367 -1.489,-0.4459 -2.3,-0.385 -4.668,0.3505 -1.164,0.3616 -2.31,0.6592 -2.546,0.6614 -0.236,0 -1.664,-0.3582 -3.175,-0.8009 -2.348,-0.6882 -3.195,-0.8068 -5.845,-0.8182 -4.241,-0.018 -6.713,0.8001 -9.122,3.0203 -1.799,1.6583 -2.579,3.3558 -2.579,5.6142 0,2.1582 0.545,3.4132 2.144,4.9329 1.599,1.5194 3.509,2.2994 6.968,2.8454 2.277,0.3595 9.121,0.3116 12.038,-0.084 z m 58.225,-16.2073 c 0.853,-0.2907 1.765,-0.9068 2.647,-1.7882 3.049,-3.0494 2.972,-7.3748 -0.185,-10.3761 -1.684,-1.6011 -5.205,-3.9042 -7.003,-4.5807 -2.078,-0.7819 -3.899,-0.651 -5.399,0.3884 -1.762,1.2215 -2.247,2.1063 -2.247,4.1001 0,1.5005 0.145,2.0067 1.136,3.9688 1.601,3.1707 3.906,6.2724 5.441,7.3224 2.112,1.4451 3.501,1.6841 5.61,0.9653 z m -23.358,-2.7205 c 3.462,-0.5668 6.664,-2.9674 8.057,-6.0382 0.98,-2.1631 1.143,-5.6717 0.359,-7.7521 -0.784,-2.0783 -2.1,-3.5001 -4.196,-4.5319 l -1.77,-0.871 -9.927,0.014 c -9.564,0.013 -9.981,0.035 -11.387,0.5912 -1.708,0.6756 -3.812,2.6093 -4.524,4.1575 -0.586,1.2727 -0.638,3.2544 -0.12,4.4951 0.954,2.2827 3.444,3.933 9.719,6.4398 1.843,0.7362 4.202,1.7672 5.242,2.291 2.581,1.2996 5.476,1.7078 8.547,1.2048 z m -45.584,-3.7135 c 4.009,-1.1492 6.349,-2.9471 7.948,-6.1082 1.575,-3.1127 1.927,-5.9547 1.077,-8.686 -1.597,-5.1328 -6.723,-8.4746 -13.016,-8.4868 -3.589,-0.01 -8.113,1.5309 -10.486,3.5651 -1.574,1.349 -2.975,4.2701 -3.257,6.7909 -0.46,4.1043 0.506,7.5473 2.806,10.0064 1.6,1.7108 2.67,2.3592 5.131,3.1098 1.709,0.5211 2.409,0.5914 4.904,0.4924 1.871,-0.074 3.618,-0.3183 4.893,-0.6836 z m 27.832,-19.7814 c 5.568,-2.463 6.39,-9.4715 1.411,-12.0312 -2.246,-1.1543 -11.144,-1.1279 -14.112,0.042 -5.029,1.9822 -7.169,5.9633 -4.982,9.2678 0.824,1.2454 2.128,1.9717 4.597,2.5607 4.185,0.9982 11.004,1.082 13.086,0.1608 z m 100.625,26.224 c -2.45,-0.2723 -6.557,-1.1869 -9.161,-2.0398 -5.57,-1.8246 -9.845,-4.4994 -13.858,-8.6694 -2.98,-3.0969 -3.875,-4.589 -5.805,-9.6787 -2.913,-7.6797 -4.548,-10.2961 -9.614,-15.3848 -4.417,-4.4367 -6.709,-6.0183 -13.761,-9.4936 -8.235,-4.0587 -10.716,-5.9724 -11.575,-8.9292 -0.367,-1.261 -0.384,-1.7011 -0.11,-2.8646 0.761,-3.2336 2.196,-4.835 5.946,-6.6354 2.631,-1.263 5.431,-3.1941 7.99,-5.5095 2.194,-1.985 3.681,-2.5716 8.673,-3.4215 2.852,-0.4857 19.558,-0.4956 24.341,-0.014 8.384,0.8433 14.238,1.6038 20.77,2.6983 2.358,0.395 6.632,1.6475 9.583,2.8084 12.741,5.0116 25.789,16.2749 30.649,26.4576 1.289,2.7016 1.52,3.745 1.728,7.8091 0.387,7.5458 -1.406,14.3758 -5.043,19.2143 -4.183,5.5644 -11.537,9.7815 -20.909,11.9912 -5.313,1.2524 -8.08,1.599 -13.494,1.6904 -2.911,0.049 -5.768,0.036 -6.35,-0.028 z m 9.915,-12.2221 c 2.295,-1.393 3.398,-4.4329 2.674,-7.3693 -0.79,-3.2071 -3.546,-7.6744 -5.79,-9.3857 -1.222,-0.9326 -3.939,-1.8088 -5.609,-1.8088 -2.956,0 -6.034,1.6142 -7.452,3.9072 -0.499,0.8077 -0.608,1.349 -0.599,2.972 0.02,3.4646 1.604,5.6888 5.701,7.9963 1.22,0.6872 2.662,1.7244 3.204,2.3051 2.277,2.4381 5.267,2.9635 7.871,1.3832 z m 13.616,-14.9963 c 4.757,-0.8297 7.293,-3.0677 7.293,-6.4371 0,-1.6201 -0.524,-2.9055 -1.64,-4.0209 -1.031,-1.0316 -3.211,-2.0969 -4.313,-2.1085 -1.289,-0.014 -2.894,-0.9086 -3.997,-2.2283 -3.471,-4.1539 -10.319,-3.4714 -12.72,1.2678 -0.593,1.1705 -0.661,1.5776 -0.559,3.3412 0.143,2.4811 0.997,4.2139 3.135,6.3617 2.156,2.1654 4.823,3.5353 7.697,3.9534 2.165,0.3147 2.624,0.3031 5.104,-0.1293 z m -30.461,-4.6946 c 1.285,-0.3685 3.214,-2.0604 3.954,-3.4692 0.459,-0.8729 0.574,-1.5438 0.573,-3.3412 0,-2.1098 -0.07,-2.3799 -1.084,-4.3656 -2.054,-4.0139 -4.472,-6.6396 -8.541,-9.2719 -2.937,-1.8994 -4.201,-2.3103 -7.074,-2.299 -2.007,0.01 -2.681,0.1231 -3.849,0.6576 -3.926,1.7977 -5.439,5.2209 -3.778,8.5528 0.81,1.6263 1.852,2.6503 5.547,5.4548 2.154,1.6348 3.091,2.5361 3.661,3.5203 2.478,4.2854 6.105,5.8476 10.591,4.5614 z m 17.121,-16.9077 c 2.866,-0.9679 4.755,-3.3156 4.755,-5.91 0,-2.7678 -1.682,-4.693 -5.873,-6.7218 -6.725,-3.256 -9.652,-3.4213 -12.603,-0.7114 -4.039,3.7077 -2.375,8.767 3.968,12.0685 3.589,1.8681 6.766,2.2833 9.753,1.2747 z m -238.527,34.0135 c -0.436,-0.062 -2.163,-0.2978 -3.836,-0.5237 -6.648,-0.8975 -15.671,-3.0768 -21.603,-5.2173 -11.61,-4.1897 -22.01,-13.8778 -27.889,-25.9804 -2.613,-5.3813 -3.605,-9.186 -3.353,-12.8653 0.256,-3.7326 2.172,-6.9808 7.819,-13.2565 13.903,-15.4487 28.223,-23.3474 47.143,-26.0035 6.427,-0.9024 19.251,-0.7871 28.31,0.2545 3.206,0.3686 3.94,0.483 8.731,1.361 5.833,1.0689 14.997,3.8607 20.757,6.3235 8.241,3.5236 15.275,7.9499 16.519,10.3948 1.098,2.1569 1.456,8.6715 0.654,11.8678 -1.062,4.2259 -6.07,9.4387 -18.013,18.7492 -4.342,3.3843 -6.327,4.5115 -11.169,6.3409 -4.429,1.6737 -7.58,3.2919 -9.466,4.862 -2.575,2.1429 -9.058,9.0366 -12.107,12.8737 -4.126,5.1928 -7.441,8.9332 -8.311,9.3773 -2.096,1.0692 -3.97,1.3838 -8.762,1.4709 -2.546,0.046 -4.987,0.033 -5.424,-0.029 z m 9.726,-12.489 c 3.083,-1.0943 5.397,-3.237 6.913,-6.4001 0.724,-1.5124 0.824,-1.9935 0.824,-3.9895 0,-2.0657 -0.07,-2.3864 -0.803,-3.5678 -1.141,-1.8454 -3.166,-2.8593 -5.965,-2.9867 -1.779,-0.081 -2.252,0 -3.672,0.6384 -1.911,0.8577 -3.165,2.1711 -5.026,5.2637 -1.535,2.55 -2.036,3.7106 -2.266,5.2459 -0.433,2.8869 1.265,5.1987 4.635,6.3082 1.027,0.3382 3.679,0.085 5.36,-0.5121 z m -11.467,-13.5556 c 2.222,-0.6157 3.775,-1.4367 5.786,-3.0593 3.278,-2.6444 4.649,-5.1997 4.673,-8.7085 0.01,-1.8793 -0.09,-2.324 -0.854,-3.8853 -1.072,-2.177 -2.948,-3.9349 -5.029,-4.7138 -4.237,-1.5851 -7.156,-0.5453 -9.726,3.4643 -1.211,1.8896 -1.183,1.8738 -3.957,2.2368 -2.034,0.2662 -3.728,1.118 -4.968,2.499 -3.376,3.758 -2.43,8.2884 2.296,11.0016 3.033,1.7415 7.945,2.2275 11.779,1.1652 z m 41.273,-18.0998 c 2.461,-1.273 4.447,-4.0794 4.714,-6.6622 0.126,-1.2275 0.03,-1.6465 -0.694,-3.1237 -0.942,-1.9139 -2.092,-2.9652 -4.395,-4.0198 -1.427,-0.653 -3.085,-0.7734 -4.58,-0.3324 -0.264,0.078 -0.365,-0.4102 -0.417,-2.0139 -0.05,-1.5702 -0.219,-2.4098 -0.654,-3.2521 -0.831,-1.6069 -2.488,-3.1679 -4.23,-3.9848 -1.483,-0.6955 -1.54,-0.7006 -7.712,-0.7006 -6.18,0 -6.227,0 -7.719,0.7039 -2.768,1.2974 -5.909,4.8117 -6.684,7.4787 -0.539,1.8557 -0.527,4.4881 0.03,6.1239 0.301,0.887 0.915,1.7766 1.92,2.7822 1.965,1.9668 3.68,2.6239 6.84,2.6196 4.245,-0.01 6.682,-1.0176 9.655,-4.0089 1.955,-1.9681 2.129,-2.0788 3.505,-2.2406 0.797,-0.094 1.447,-0.065 1.446,0.065 0,0.1291 -0.18,0.8193 -0.397,1.5337 -0.591,1.9485 -0.503,4.0172 0.238,5.5803 0.806,1.6989 2.418,3.2385 3.894,3.7192 1.456,0.4739 4.064,0.3409 5.24,-0.2672 z m -49.48,-6.0843 c 1.009,-0.5218 2.378,-2.1283 2.987,-3.5058 0.482,-1.0892 0.553,-1.1379 1.654,-1.1379 2.978,0 5.691,-1.5424 6.617,-3.7619 0.917,-2.1978 0.182,-5.4626 -1.607,-7.1372 -1.978,-1.8519 -5.912,-2.7648 -8.867,-2.0574 -3.76,0.9 -7.206,3.5466 -8.838,6.788 -0.664,1.3185 -0.775,1.8407 -0.774,3.6549 0,1.6671 0.123,2.3481 0.578,3.2058 0.822,1.5481 1.753,2.5824 3.168,3.52 1.024,0.6781 1.491,0.8148 2.786,0.8148 0.855,0 1.889,-0.1725 2.296,-0.3833 z m 122.264,7.8937 c -2.522,-0.1178 -10.619,-0.6067 -15.445,-0.9325 -6.872,-0.464 -9.621,-1.403 -11.336,-3.8721 l -0.868,-1.2505 -0.09,-5.424 c -0.1,-6.2398 0.574,-17.3665 1.186,-19.5792 1.152,-4.1683 5.191,-8.7625 9.431,-10.7291 0.793,-0.3677 1.414,-0.5239 1.467,-0.369 0.05,0.1478 -0.381,0.7803 -0.957,1.4055 -2.078,2.2545 -2.736,5.7997 -1.626,8.7658 0.903,2.4122 2.968,4.4047 6.173,5.9553 5.175,2.503 13.344,3.8723 19.212,3.2199 9.037,-1.0049 16.298,-6.7773 16.623,-13.2153 0.152,-3.0233 -0.609,-4.4748 -3.403,-6.4881 -0.658,-0.4734 -0.655,-0.4744 0.928,-0.3433 2.346,0.1945 6.153,2.1439 8.077,4.1365 3.363,3.4825 3.787,5.7733 3.812,20.6264 0.02,9.0288 -0.03,10.0729 -0.488,11.5998 -0.635,2.1131 -2.453,4.2108 -4.361,5.0313 -3.306,1.4222 -3.613,1.4519 -15.507,1.499 -6.112,0.024 -11.886,0.01 -12.832,-0.036 z m 140.96,-16.3775 c -1.502,-0.5518 -3.159,-1.7874 -6.652,-4.9612 -8.321,-7.5595 -12.558,-9.1614 -26.858,-10.1564 -5.812,-0.4043 -7.355,-0.4193 -13.034,-0.1271 -3.543,0.1823 -9.24,0.4343 -12.66,0.5599 -11.102,0.4079 -13.559,1.2398 -19.918,6.7436 -1.278,1.1061 -2.646,2.1337 -3.04,2.2835 -1.212,0.4608 -2.281,0.068 -3.574,-1.3149 -1.411,-1.509 -1.84,-2.2825 -2.439,-4.4044 -0.246,-0.8712 -0.962,-3.2509 -1.591,-5.2881 -2.152,-6.9679 -2.466,-9.6434 -1.386,-11.7823 0.761,-1.507 1.836,-2.205 6.284,-4.0812 7.233,-3.0512 8.976,-3.9852 18.785,-10.0696 1.819,-1.1283 4.438,-2.736 5.821,-3.5728 1.382,-0.8367 4.039,-2.4817 5.903,-3.6556 3.625,-2.2826 5.095,-2.9328 8.646,-3.8236 1.959,-0.4913 2.975,-0.5624 7.808,-0.5463 4.6,0.015 5.995,0.1138 8.101,0.5717 6.204,1.3485 12.466,4.0309 16.949,7.2602 5.202,3.7479 12.099,10.5078 14.758,14.4658 3.586,5.3371 6.419,12.7742 7.013,18.4087 0.09,0.8731 0.291,2.6243 0.441,3.8915 0.325,2.7424 -0.05,5.6889 -0.93,7.2521 -0.643,1.1462 -1.898,2.087 -3.306,2.4782 -1.33,0.3695 -3.939,0.3024 -5.121,-0.1317 z m -20.602,-22.2073 c 1.317,-0.6807 3.175,-2.4954 3.796,-3.7064 0.672,-1.3104 0.913,-4.3102 0.477,-5.9228 -0.639,-2.3658 -3.234,-4.1913 -7.817,-5.4998 -2.923,-0.8345 -6.67,0.8605 -8.1,3.6647 -2.085,4.0857 0.823,10.1376 5.718,11.9019 0.963,0.3469 4.983,0.05 5.926,-0.4376 z m -22.727,-3.16 c 3.782,-1.9862 4.554,-5.9725 1.826,-9.4241 -3.666,-4.6374 -11.705,-6.1208 -17.671,-3.2608 -3.64,1.7447 -5.251,4.1325 -4.989,7.3963 0.189,2.3535 1.076,3.6487 3.239,4.7303 1.496,0.7479 1.825,0.8032 5.689,0.9566 7.128,0.283 10.846,0.1587 11.906,-0.3983 z m -92.361,11.1086 c -0.06,-0.059 -1.897,-0.2453 -4.079,-0.4142 -7.82,-0.6051 -11.13,-1.3102 -12.725,-2.7104 -0.757,-0.6654 -0.901,-0.9697 -0.901,-1.9056 0,-0.8733 0.157,-1.2609 0.727,-1.7956 2.045,-1.916 7.071,-3.224 15.015,-3.9071 12.002,-1.0321 15.283,-1.0119 17.191,0.106 3.626,2.1253 2.733,7.1429 -1.671,9.39 -1.699,0.8665 -5.045,1.344 -9.419,1.344 -2.216,0 -4.078,-0.048 -4.138,-0.1071 z m -34.948,-14.1204 c -0.679,-0.3968 -2.508,-1.5811 -4.064,-2.6319 -9.315,-6.2909 -20.223,-9.6505 -34.463,-10.6138 -2.992,-0.2024 -3.338,-0.2818 -4.359,-0.9998 -0.611,-0.4289 -1.47,-1.3618 -1.91,-2.0731 -0.702,-1.1346 -0.811,-1.5798 -0.892,-3.6282 -0.111,-2.7898 0.472,-5.027 2.156,-8.2735 2.179,-4.2025 5.172,-7.9292 8.801,-10.958 7.181,-5.9945 15.565,-10.1781 27.015,-13.4812 6.911,-1.9937 12.27,-2.975 21.387,-3.916 6.018,-0.6212 22.055,-0.6221 28.442,0 11.406,1.1081 19.397,2.5817 28.201,5.2006 9.661,2.8739 13.931,4.8986 17.531,8.3133 2.563,2.4307 3.483,4.2001 3.475,6.6817 -0.01,3.3708 -1.478,5.2374 -6.627,8.4326 -2.83,1.7558 -8.48,5.3217 -12.417,7.8365 -9.941,6.3494 -15.613,9.8672 -16.579,10.2809 -3.271,1.4024 -3.01,1.3833 -21.145,1.5479 l -16.954,0.1539 -2.228,1.1085 c -1.927,0.9584 -2.559,1.4652 -4.669,3.7433 -3.119,3.3673 -4.304,4.0144 -7.335,4.0056 -1.835,-0.01 -2.302,-0.1063 -3.366,-0.7276 z m 6.987,-7.8194 c 3.275,-1.6034 5.562,-5.0226 5.579,-8.3428 0.02,-2.9581 -1.432,-4.9386 -4.496,-6.149 -1.38,-0.5453 -1.976,-0.609 -5.644,-0.6032 -3.646,0.01 -4.275,0.074 -5.664,0.6171 -1.85,0.7226 -3.647,2.3984 -4.125,3.8458 -0.807,2.4454 0.296,5.3322 2.539,6.6467 0.617,0.3614 1.551,1.1815 2.076,1.8224 1.874,2.2873 3.575,3.0825 6.365,2.9767 1.393,-0.053 2.228,-0.2543 3.37,-0.8137 z m 32.348,-9.7991 c 2.141,-0.5733 4.617,-1.9728 6.078,-3.435 5.561,-5.5691 3.145,-13.8034 -4.224,-14.395 -0.947,-0.076 -1.721,-0.1692 -1.721,-0.2072 0,-0.038 0.296,-0.5872 0.658,-1.2205 0.816,-1.4277 0.914,-3.9845 0.21,-5.4684 -1.999,-4.2134 -9.298,-6.2193 -17.862,-4.9092 -2.67,0.4084 -2.986,0.4064 -5.323,-0.034 -4.988,-0.9388 -8.709,-0.1816 -11.459,2.3318 -1.908,1.7437 -2.459,2.9379 -2.467,5.3442 0,3.0287 1.218,4.8207 4.36,6.3677 2.554,1.2571 5.184,1.7833 8.864,1.7732 2.791,-0.01 3.305,-0.093 6.218,-1.0265 2.958,-0.9487 3.395,-1.0187 6.403,-1.0255 2.376,-0.01 3.318,0.087 3.571,0.3507 0.284,0.2953 0.256,0.4114 -0.159,0.6615 -4.768,2.8744 -6.04,4.8809 -5.438,8.5774 0.492,3.0246 2.332,5.1355 5.382,6.1762 1.653,0.5639 5.065,0.6321 6.909,0.1381 z m -48.365,-3.357 c 2.785,-0.7934 4.877,-1.9508 6.881,-3.8061 2.511,-2.3252 3.632,-4.4135 3.642,-6.7834 0,-1.4822 -0.112,-1.932 -0.797,-3.0427 -0.66,-1.0686 -1.16,-1.4871 -2.778,-2.3234 -1.858,-0.9598 -2.084,-1.0131 -3.826,-0.9009 -1.385,0.089 -2.262,0.3268 -3.473,0.941 -1.249,0.6336 -2.189,0.8803 -4.101,1.0774 -2.967,0.3058 -5.706,1.1599 -7.357,2.2943 -2.485,1.707 -3.564,5.3084 -2.514,8.39 0.481,1.4101 2.411,3.3677 3.99,4.0463 2.35,1.0102 6.995,1.0585 10.333,0.1075 z m 75.93,-4.3982 c 3.248,-1.5086 5.206,-5.7412 4.223,-9.125 -0.786,-2.7011 -2.939,-4.7391 -5.859,-5.5437 -1.605,-0.4425 -4.588,-0.3584 -5.891,0.166 -2.26,0.9097 -4.295,4.2123 -4.295,6.97 0,6.113 6.273,10.1102 11.822,7.5327 z"
       id="path45367" /></g></svg>
