<?xml version="1.0" encoding="UTF-8" standalone="no"?>
<!-- Created with Inkscape (http://www.inkscape.org/) -->

<svg
   width="633.32031"
   height="699.24023"
   viewBox="0 0 167.56599 185.00731"
   version="1.1"
   id="svg1"
   xml:space="preserve"
   inkscape:version="1.4.3 (0d15f75042, 2025-12-25)"
   sodipodi:docname="pokemontcg.svg"
   inkscape:export-filename="pokemontcg.png"
   inkscape:export-xdpi="95.999977"
   inkscape:export-ydpi="95.999977"
   xmlns:inkscape="http://www.inkscape.org/namespaces/inkscape"
   xmlns:sodipodi="http://sodipodi.sourceforge.net/DTD/sodipodi-0.dtd"
   xmlns="http://www.w3.org/2000/svg"
   xmlns:svg="http://www.w3.org/2000/svg"><sodipodi:namedview
     id="namedview1"
     pagecolor="#ffffff"
     bordercolor="#000000"
     borderopacity="0.25"
     inkscape:showpageshadow="2"
     inkscape:pageopacity="0.0"
     inkscape:pagecheckerboard="0"
     inkscape:deskcolor="#d1d1d1"
     inkscape:document-units="px"
     inkscape:zoom="0.16"
     inkscape:cx="-33375"
     inkscape:cy="28884.375"
     inkscape:window-width="1920"
     inkscape:window-height="995"
     inkscape:window-x="0"
     inkscape:window-y="0"
     inkscape:window-maximized="1"
     inkscape:current-layer="layer1"
     showguides="false"><inkscape:page
       x="0"
       y="0"
       width="167.56599"
       height="185.00731"
       id="page3"
       margin="0"
       bleed="0" /></sodipodi:namedview><defs
     id="defs1" /><g
     inkscape:label="Layer 1"
     inkscape:groupmode="layer"
     id="layer1"
     transform="translate(11635.268,-7501.467)"><path
       style="fill:#000000"
       d="m -11612.914,7686.115 c -2.104,-0.4568 -3.558,-1.3019 -5.131,-2.9841 -2.425,-2.5927 -2.78,-4.4264 -2.212,-11.4497 1.149,-14.2151 3.219,-25.4515 6.526,-35.4176 2.505,-7.5507 4.672,-11.9761 9.464,-19.3282 2.913,-4.4687 5.025,-8.6104 4.653,-9.1228 -0.136,-0.1869 -1.36,-1.5743 -2.721,-3.083 -12.536,-13.9027 -15.873,-33.5687 -8.618,-50.7823 6.255,-14.8398 19.242,-25.3533 35.34,-28.6097 2.612,-0.5283 3.782,-0.6071 8.957,-0.6024 5.145,0 6.367,0.088 8.996,0.6151 3.97,0.7955 8.651,2.3746 11.956,4.0329 2.837,1.4235 4.896,1.9011 5.429,1.2591 0.502,-0.6042 -1.825,-4.2472 -4.287,-6.7118 -3.003,-3.0071 -6.52,-4.7713 -11.775,-5.9076 -12.47,-2.6961 -20.336,-2.1773 -33.999,2.2426 -8.836,2.8583 -18.343,8.484 -27.969,16.5508 -1.704,1.4279 -3.19,2.5962 -3.302,2.5962 -0.112,0 0.922,-1.1311 2.299,-2.5136 l 2.503,-2.5135 h -1.45 -1.45 l -2.778,2.4832 c -5.815,5.1977 -7.592,7.4851 -8.182,10.5329 -0.178,0.9176 -0.378,1.9448 -0.446,2.2828 -0.08,0.4272 -0.503,0.7811 -1.37,1.1606 -0.686,0.3003 -1.593,0.7896 -2.017,1.0873 l -0.77,0.5413 0.158,-1.8752 c 0.09,-1.0313 0.529,-2.9878 0.983,-4.3477 0.759,-2.2691 1.604,-4.0057 5.557,-11.4218 l 1.386,-2.5993 -0.721,-0.7529 c -0.397,-0.4141 -0.679,-0.8772 -0.626,-1.0291 0.05,-0.152 1.144,-1.5871 2.425,-3.1892 7.097,-8.8708 18.965,-16.7841 31.944,-21.2994 9.11,-3.1694 16.82,-4.5124 25.786,-4.4922 10.04,0.023 17.516,1.7159 26.151,5.9226 7.471,3.6396 12.765,8.5839 15.903,14.8519 1.392,2.7794 3.228,8.3061 4.26,12.8193 0.576,2.521 0.724,3.8312 0.729,6.4687 0,3.4952 -0.326,5.2792 -1.546,8.281 l -0.625,1.539 0.9,2.047 c 1.231,2.7996 2.385,6.4413 3.104,9.7978 0.54,2.5212 0.6,3.5006 0.586,9.556 -0.01,6.3199 -0.06,6.9394 -0.715,9.7896 -2.98,12.9619 -10.071,23.2658 -20.891,30.3582 -11.796,7.7316 -27.273,9.8178 -40.68,5.4835 -1.56,-0.5042 -2.952,-0.9167 -3.093,-0.9167 -0.35,0 -3.424,4.1041 -5.252,7.0114 -2.788,4.4351 -4.913,9.4996 -5.961,14.2048 -0.731,3.2808 -0.727,3.3028 0.474,2.583 7.76,-4.6516 17.989,-10.1293 24.937,-13.3545 18.658,-8.6609 35.708,-14.0328 54.93,-17.3072 4.673,-0.796 4.688,-0.7939 5.818,0.7785 0.543,0.7565 1.235,1.3956 1.613,1.4905 1.205,0.3025 6.785,-0.1034 9.473,-0.6892 1.455,-0.3171 4.56,-1.1584 6.9,-1.8695 5.482,-1.6663 8.33,-2.2913 12.631,-2.7719 3.815,-0.4262 11.028,-0.5327 11.028,-0.1629 0,0.5979 -4.393,2.3957 -12.686,5.1914 -8.549,2.8821 -17.768,6.3799 -18.924,7.1801 -0.456,0.3157 -0.178,0.3613 2.201,0.3613 2.62,0 2.72,0.021 2.639,0.5576 -0.07,0.4665 -0.491,0.6601 -2.573,1.1849 -1.368,0.345 -3.731,1.0566 -5.25,1.5814 -1.835,0.6333 -3.445,1.0007 -4.789,1.0927 -1.658,0.1135 -2.389,0.3226 -4.033,1.1542 -2.933,1.4831 -5.003,2.26 -14.264,5.3519 -13.846,4.623 -22.255,8.2595 -40.746,17.6203 -11.531,5.838 -15.409,8.2569 -20.259,12.6368 -4.597,4.1518 -7.561,8.1317 -10.714,14.3827 -1.881,3.731 -2.019,3.9206 -4.994,6.8976 l -3.059,3.0612 -2.249,0.4448 c -2.635,0.5211 -3.268,0.5256 -5.512,0.038 z m 53.667,-69.3345 c 14.355,-2.4765 26.312,-11.4385 32.932,-24.6838 2.061,-4.1248 3.862,-10.7041 4.27,-15.6052 l 0.18,-2.1585 -14.752,0.068 -14.753,0.068 -0.481,1.8926 c -1.12,4.4109 -3.962,7.9062 -8.12,9.9867 -2.035,1.0185 -4.126,1.4821 -6.685,1.4821 -4.228,0 -7.828,-1.4956 -10.831,-4.5005 -2.233,-2.2337 -3.605,-4.8321 -4.364,-8.2656 l -0.161,-0.7276 h -14.717 -14.717 l 0.181,2.4474 c 0.696,9.404 5.208,19.3251 12.025,26.4388 4.74,4.9466 8.925,7.9063 14.765,10.4425 4.51,1.9582 8.326,2.9249 14.38,3.6423 1.826,0.2164 8.382,-0.1027 10.848,-0.528 z m -4.974,-31.8866 c 3.783,-0.7865 7.184,-3.4713 8.855,-6.9896 0.874,-1.8397 0.982,-2.313 1.087,-4.7239 0.1,-2.2546 0.02,-2.9472 -0.457,-4.3691 -2.545,-7.5099 -10.698,-10.875 -17.722,-7.3153 -1.981,1.0035 -4.292,3.2953 -5.273,5.2276 -0.468,0.9225 -1.04,2.6369 -1.272,3.8097 -0.38,1.9293 -0.381,2.3223 -0.01,4.1244 0.577,2.8312 1.583,4.7707 3.466,6.6808 3.084,3.1295 7.186,4.4167 11.329,3.5554 z m -4.589,-5.3515 c -2.574,-0.9628 -4.156,-2.6209 -4.881,-5.1158 -1.604,-5.5154 4,-10.6022 9.506,-8.6288 2.895,1.0378 4.673,3.605 4.673,6.7481 0,2.9202 -1.238,5.0541 -3.715,6.402 -1.638,0.8917 -4.091,1.1528 -5.583,0.5945 z m -13.038,-9.3721 c 0.502,-2.229 0.777,-3.0156 1.644,-4.6964 1.183,-2.2974 4.056,-5.225 6.272,-6.3926 2.47,-1.3012 4.417,-1.7697 7.276,-1.7513 7.123,0.046 13.058,4.6603 14.796,11.5046 l 0.49,1.931 14.714,0.068 14.715,0.068 v -1.1267 c 0,-1.5624 -0.938,-7.0991 -1.576,-9.3089 -4.311,-14.9166 -15.848,-26.5618 -30.571,-30.8577 -9.281,-2.7082 -19.155,-2.3611 -28.178,0.9906 -10.612,3.9418 -19.567,12.0331 -24.597,22.2239 -2.377,4.8147 -4.038,10.7134 -4.402,15.627 l -0.181,2.4474 h 14.717 14.717 z"
       id="path45367" /></g></svg>
