<?xml version="1.0" encoding="UTF-8" standalone="no"?>
<!-- Created with Inkscape (http://www.inkscape.org/) -->

<svg
   width="826.37109"
   height="650.70312"
   viewBox="0 0 218.64401 172.1652"
   version="1.1"
   id="svg1"
   xml:space="preserve"
   inkscape:version="1.4.3 (0d15f75042, 2025-12-25)"
   sodipodi:docname="pokemontcg.svg"
   inkscape:export-filename="pokemontcg.png"
   inkscape:export-xdpi="95.999977"
   inkscape:export-ydpi="95.999977"
   xmlns:inkscape="http://www.inkscape.org/namespaces/inkscape"
   xmlns:sodipodi="http://sodipodi.sourceforge.net/DTD/sodipodi-0.dtd"
   xmlns="http://www.w3.org/2000/svg"
   xmlns:svg="http://www.w3.org/2000/svg"><sodipodi:namedview
     id="namedview1"
     pagecolor="#ffffff"
     bordercolor="#000000"
     borderopacity="0.25"
     inkscape:showpageshadow="2"
     inkscape:pageopacity="0.0"
     inkscape:pagecheckerboard="0"
     inkscape:deskcolor="#d1d1d1"
     inkscape:document-units="px"
     inkscape:zoom="0.16"
     inkscape:cx="-33375"
     inkscape:cy="28884.375"
     inkscape:window-width="1920"
     inkscape:window-height="995"
     inkscape:window-x="0"
     inkscape:window-y="0"
     inkscape:window-maximized="1"
     inkscape:current-layer="layer1"
     showguides="false"><inkscape:page
       x="0"
       y="0"
       width="218.64401"
       height="172.16521"
       id="page3"
       margin="0"
       bleed="0" /></sodipodi:namedview><defs
     id="defs1" /><g
     inkscape:label="Layer 1"
     inkscape:groupmode="layer"
     id="layer1"
     transform="translate(11720.796,-7484.6125)"><path
       style="fill:#000000;stroke-width:0.999999"
       d="m -11719.319,7654.1768 c -3.396,-2.4869 -2.525,-6.0884 20.105,-83.0734 13.01,-44.261 24.523,-81.6731 25.588,-83.1396 2.828,-3.9231 113.398,-4.6521 128.488,-0.847 21.4,5.3968 38.432,17.9541 41.015,30.2365 0.576,2.8603 1.411,6.764 1.792,8.6745 1.317,6.5683 -4.843,24.7282 -11.441,33.7106 -8.002,10.903 -15.788,17.0309 -30.611,24.0986 -6.174,2.9437 -11.858,6.2092 -12.628,7.2561 -3.21,4.3664 -0.806,11.7298 10.923,33.461 6.8,12.617 12.369,24.5835 12.369,26.5933 0,2.363 -1.777,4.1001 -5.037,4.9175 -6.908,1.7349 -47.413,-0.5972 -51.881,-2.9891 -1.986,-1.0664 -6.217,-8.1657 -9.398,-15.7774 -17.334,-41.5352 -19.86,-44.4106 -37.346,-42.444 -6.231,0.6979 -12.801,2.0594 -14.593,3.0186 -4.044,2.163 -8.541,14.1684 -11.268,30.0544 -4.577,26.6343 -7.102,28.8499 -32.892,28.8499 -13.585,0 -20.724,-0.8009 -23.185,-2.6005 z m 139.065,-98.5313 c 9.765,-2.4588 20.451,-13.0207 19.515,-19.286 -0.36,-2.1473 -2.727,-5.4832 -5.346,-7.4124 -4.109,-3.033 -8.873,-3.5446 -35.094,-3.7727 -29.222,-0.2519 -30.467,-0.1079 -33.769,3.9742 -4.066,5.019 -7.981,18.375 -6.505,22.2089 0.575,1.486 2.979,3.4835 5.36,4.4391 6.182,2.4832 45.809,2.376 55.839,-0.1511 z"
       id="path45367" /></g></svg>
