<?xml version="1.0" encoding="UTF-8" standalone="no"?>
<!-- Created with Inkscape (http://www.inkscape.org/) -->

<svg
   width="1679.8164"
   height="950.16797"
   viewBox="0 0 444.45141 251.39861"
   version="1.1"
   id="svg1"
   xml:space="preserve"
   inkscape:version="1.4.3 (0d15f75042, 2025-12-25)"
   sodipodi:docname="pokemontcg.svg"
   inkscape:export-filename="pokemontcg.png"
   inkscape:export-xdpi="95.999977"
   inkscape:export-ydpi="95.999977"
   xmlns:inkscape="http://www.inkscape.org/namespaces/inkscape"
   xmlns:sodipodi="http://sodipodi.sourceforge.net/DTD/sodipodi-0.dtd"
   xmlns="http://www.w3.org/2000/svg"
   xmlns:svg="http://www.w3.org/2000/svg"><sodipodi:namedview
     id="namedview1"
     pagecolor="#ffffff"
     bordercolor="#000000"
     borderopacity="0.25"
     inkscape:showpageshadow="2"
     inkscape:pageopacity="0.0"
     inkscape:pagecheckerboard="0"
     inkscape:deskcolor="#d1d1d1"
     inkscape:document-units="px"
     inkscape:zoom="0.16"
     inkscape:cx="-33375"
     inkscape:cy="28884.375"
     inkscape:window-width="1920"
     inkscape:window-height="995"
     inkscape:window-x="0"
     inkscape:window-y="0"
     inkscape:window-maximized="1"
     inkscape:current-layer="layer1"
     showguides="false"><inkscape:page
       x="0"
       y="0"
       width="444.45142"
       height="251.39861"
       id="page3"
       margin="0"
       bleed="0" /></sodipodi:namedview><defs
     id="defs1" /><g
     inkscape:label="Layer 1"
     inkscape:groupmode="layer"
     id="layer1"
     transform="translate(11808.677,-7218.8878)"><path
       style="fill:#000000"
       d="m -11585.913,7470.1781 c -0.145,-0.047 -1.157,-0.2896 -2.249,-0.54 -2.781,-0.6379 -4.892,-1.7791 -6.631,-3.5844 -2.628,-2.7274 -4.123,-6.4899 -4.725,-11.8885 -0.695,-6.2402 -0.887,-7.6519 -1.367,-10.0755 -2.787,-14.0745 -9.601,-24.6995 -20.827,-32.4778 -3.897,-2.6998 -7.337,-4.1104 -15.887,-6.5141 -3.296,-0.9267 -9.565,-2.7152 -13.93,-3.9746 -7.607,-2.1942 -15.918,-4.309 -36.38,-9.2574 -29.511,-7.1363 -42.762,-11.1395 -59.796,-18.0652 -5.204,-2.1158 -17.848,-8.5938 -22.845,-11.7041 -10.005,-6.2287 -15.867,-10.7177 -21.907,-16.7758 -8.445,-8.4724 -13.426,-17.0203 -15.744,-27.019 -0.406,-1.749 -0.488,-3.174 -0.475,-8.2021 0.01,-5.9378 0.03,-6.1601 0.833,-9.1615 2.581,-9.7038 7.199,-17.1459 15.994,-25.77 4.728,-4.6357 6.328,-5.94 13.055,-10.6428 26.514,-18.5343 58.608,-30.2173 103.32,-37.6113 14.39,-2.3796 25.908,-3.8865 38.497,-5.0364 6.464,-0.5906 17.852,-1.4587 28.046,-2.1383 2.328,-0.1552 5.721,-0.4223 7.54,-0.5935 3.892,-0.3663 15.706,-0.3393 23.945,0.055 14.08,0.6731 16.864,0.8322 28.178,1.6106 12.325,0.848 25.363,2.1812 37.571,3.8417 13.806,1.8779 28.921,4.7603 41.54,7.9215 22.469,5.6288 41.819,12.562 57.546,20.6189 11.429,5.8545 19.402,10.7964 26.061,16.1526 2.95,2.3724 9.319,8.6879 11.348,11.2528 5.341,6.7497 8.602,13.8631 10.25,22.3573 0.666,3.4354 0.719,4.2033 0.726,10.5834 0,5.7801 -0.09,7.5132 -0.582,10.8479 -1.102,7.4108 -2.874,14.9183 -5.247,22.225 -4.83,14.8756 -10.803,26.5499 -19.46,38.035 -6.437,8.5402 -15.545,17.4653 -24.815,24.3158 -31.126,23.0011 -64.738,39.0548 -104.246,49.7887 -12.045,3.2725 -25.805,6.2232 -39.026,8.3686 -8.31,1.3485 -9.793,1.5622 -16.669,2.4017 -1.31,0.1599 -3.105,0.4015 -3.99,0.5368 -1.487,0.2273 -7.045,0.3141 -7.652,0.1194 z m 15.214,-14.1556 c 2.692,-0.599 9.955,-2.1475 16.14,-3.4409 16.164,-3.3806 26.076,-5.5856 34.528,-7.681 50.555,-12.5342 85.454,-29.9451 111.871,-55.8121 8.291,-8.1188 12.979,-14.6805 18.058,-25.2785 3.022,-6.3038 7.75,-18.3886 7.195,-18.3886 -0.144,0 -4.862,1.5424 -10.485,3.4276 -44.394,14.8846 -88.784,25.1403 -142.514,32.9262 -23.508,3.4065 -56.073,6.9601 -82.683,9.0227 -7.644,0.5926 -6.945,0.387 -8.051,2.3663 -0.52,0.9284 -0.942,1.7877 -0.94,1.9096 0,0.1219 0.687,0.5084 1.521,0.859 3.407,1.4313 9.579,4.5095 11.439,5.7047 5.951,3.8233 11.185,9.0852 15.141,15.2214 4.578,7.0998 7.684,14.9049 10.808,27.1556 0.874,3.4263 1.893,6.9885 2.264,7.9159 1.04,2.5965 2.856,4.4329 5.123,5.1792 1.373,0.4521 5.635,0.014 10.585,-1.0871 z m -77.413,-76.7286 c 5.768,-1.4754 8.779,-5.2391 9.529,-11.912 0.09,-0.8004 0.218,-16.8448 0.284,-35.6542 0.133,-37.6565 0.05,-35.8988 1.788,-39.4428 1.013,-2.0696 3.361,-4.5256 5.587,-5.8435 2.489,-1.4739 5.56,-2.4746 16.304,-5.3125 19.882,-5.2517 35.307,-9.508 89.032,-24.5677 l 26.194,-7.3424 0.727,-2.2356 c 1.044,-3.2142 1.041,-3.4046 -0.07,-3.8312 -0.51,-0.1964 -3.665,-1.4213 -7.012,-2.7221 -11.15,-4.3334 -13.582,-4.9612 -23.209,-5.9912 -19.507,-2.0869 -35.055,-3.0001 -54.975,-3.229 -53.499,-0.6145 -100.684,6.7011 -147.109,22.8082 -14.083,4.8863 -25.847,11.2849 -39.099,21.2665 -16.472,12.4065 -22.754,20.0356 -25.402,30.8464 -0.343,1.3987 -0.448,2.9209 -0.428,6.2177 0.02,3.8218 0.11,4.6789 0.71,6.8806 2.383,8.757 8.496,17.0962 17.793,24.271 28.569,22.0492 62.752,32.7773 114.027,35.7875 2.765,0.1623 5.385,0.3288 5.821,0.3701 3.125,0.2949 7.596,0.1237 9.503,-0.3638 z m 151.997,-13.9626 c 0.633,-2.4421 1.858,-9.0386 2.421,-13.0307 0.415,-2.9429 0.203,-9.3901 -0.378,-11.5094 -0.651,-2.3743 -2.125,-5.1957 -3.837,-7.3444 -1.699,-2.132 -8.391,-8.2265 -12.862,-11.7137 -12.659,-9.8729 -27.889,-17.6411 -44.08,-22.4839 -8.194,-2.451 -16.517,-4.284 -25.241,-5.559 -6.202,-0.9066 -14.234,-1.7071 -17.171,-1.7115 h -2.09 l 1.122,0.813 c 1.302,0.943 3.366,1.8378 12.98,5.6259 3.856,1.5194 8.678,3.4748 10.715,4.3452 3.597,1.5364 15.029,6.9376 16.833,7.9526 0.492,0.2767 2.264,1.2589 3.937,2.1827 4.291,2.3683 9.606,5.7198 13.626,8.5922 6.557,4.684 9.823,7.4678 15.538,13.244 7.488,7.5683 12.851,14.874 17.932,24.4261 0.831,1.5625 1.796,2.9945 2.249,3.3392 0.716,0.5441 7.405,3.7919 7.861,3.8168 0.104,0.01 0.304,-0.4363 0.445,-0.982 z m 46.307,-8.202 c 0.409,-1.5498 1.017,-4.5169 1.341,-6.5485 0.162,-1.0186 0.433,-2.626 0.602,-3.5719 0.498,-2.7853 0.392,-12.4091 -0.165,-14.9489 -1.204,-5.4972 -3.284,-9.8008 -6.714,-13.8881 -1.474,-1.756 -6.406,-6.5237 -9.732,-9.4072 -11.128,-9.647 -24.3,-17.1362 -39.687,-22.565 -5.114,-1.804 -14.472,-4.4601 -18.743,-5.3194 -0.602,-0.1211 -2.582,-0.5207 -4.401,-0.8878 -4.989,-1.007 -10.699,-1.9068 -16.14,-2.5433 -5.106,-0.5973 -4.762,-0.5955 -4.762,-0.026 0,0.2854 0.186,0.984 0.413,1.5525 0.402,1.0047 0.508,1.0688 3.77,2.2818 1.847,0.6865 4.31,1.6433 5.474,2.1264 19.743,8.1915 31.224,14.3222 42.278,22.5763 5.606,4.1859 7.903,6.1648 12.632,10.885 4.546,4.537 7.662,8.1814 11.154,13.0466 4.189,5.8366 8.435,13.4854 11.188,20.1563 0.665,1.6101 1.53,3.2373 1.941,3.6476 0.592,0.5929 8.367,4.3621 9.101,4.4128 0.104,0.01 0.306,-0.4335 0.45,-0.9792 z m 36.496,-14.2214 c 2.221,-2.6101 2.894,-4.2342 3.345,-8.0698 1.698,-14.4414 -1.852,-26.0227 -10.713,-34.9439 -2.783,-2.8018 -4.118,-3.8682 -9.79,-7.8233 -20.382,-14.2117 -43.358,-22.7028 -67.866,-25.0811 -5.393,-0.5234 -13.096,-0.8222 -13.096,-0.508 0,0.5732 3.614,2.285 7.937,3.7591 14.241,4.8562 26.416,10.5661 37.306,17.4972 3.917,2.4923 9.292,6.3514 11.774,8.4527 0.873,0.7391 2.405,2.014 3.404,2.8331 0.999,0.8191 3.605,3.289 5.791,5.4887 9.79,9.8511 16.862,20.0368 22.618,32.5745 0.935,2.0373 2.018,4.0435 2.406,4.4582 0.904,0.9646 4.541,3.1191 5.104,3.0232 0.236,-0.04 1.037,-0.7875 1.78,-1.6606 z m 31.488,-14.4006 c 1.127,-0.5749 2.697,-2.2055 3.362,-3.4923 0.406,-0.7847 0.418,-1.4093 0.135,-7.2257 -0.651,-13.4259 -1.699,-17.6182 -5.898,-23.5865 -1.981,-2.8158 -8.332,-9.283 -11.849,-12.0663 -19.808,-15.6751 -50.617,-26.5576 -71.725,-25.3343 -4.073,0.236 -4.535,0.3554 -4.423,1.142 0.07,0.4595 0.609,0.7416 2.991,1.5517 11.929,4.0579 19.729,7.2062 28.045,11.3204 25.139,12.4359 41.405,28.4441 51.894,51.0719 1.109,2.393 2.322,4.6792 2.696,5.0805 0.62,0.6661 3.015,2.0486 3.549,2.0486 0.123,0 0.673,-0.2295 1.223,-0.51 z"
       id="path45367" /></g></svg>
