<?xml version="1.0" encoding="UTF-8" standalone="no"?>
<!-- Created with Inkscape (http://www.inkscape.org/) -->

<svg
   width="1124.3242"
   height="806.86914"
   viewBox="0 0 297.47744 213.48413"
   version="1.1"
   id="svg1"
   xml:space="preserve"
   inkscape:version="1.4.3 (0d15f75042, 2025-12-25)"
   sodipodi:docname="pokemontcg.svg"
   inkscape:export-filename="pokemontcg.png"
   inkscape:export-xdpi="95.999977"
   inkscape:export-ydpi="95.999977"
   xmlns:inkscape="http://www.inkscape.org/namespaces/inkscape"
   xmlns:sodipodi="http://sodipodi.sourceforge.net/DTD/sodipodi-0.dtd"
   xmlns="http://www.w3.org/2000/svg"
   xmlns:svg="http://www.w3.org/2000/svg"><sodipodi:namedview
     id="namedview1"
     pagecolor="#ffffff"
     bordercolor="#000000"
     borderopacity="0.25"
     inkscape:showpageshadow="2"
     inkscape:pageopacity="0.0"
     inkscape:pagecheckerboard="0"
     inkscape:deskcolor="#d1d1d1"
     inkscape:document-units="px"
     inkscape:zoom="0.16"
     inkscape:cx="-33375"
     inkscape:cy="28884.375"
     inkscape:window-width="1920"
     inkscape:window-height="995"
     inkscape:window-x="0"
     inkscape:window-y="0"
     inkscape:window-maximized="1"
     inkscape:current-layer="layer1"
     showguides="false"><inkscape:page
       x="0"
       y="0"
       width="297.47745"
       height="213.48413"
       id="page3"
       margin="0"
       bleed="0" /></sodipodi:namedview><defs
     id="defs1" /><g
     inkscape:label="Layer 1"
     inkscape:groupmode="layer"
     id="layer1"
     transform="translate(11876.905,-7574.3658)"><path
       style="fill:#000000"
       d="m -11634.733,7787.6424 -4.263,-0.168 -6.602,-3.217 c -12.415,-6.0495 -18.045,-7.7347 -25.842,-7.7354 -4.142,-4e-4 -5.031,0.1898 -9.56,2.0438 -5.973,2.4455 -9.452,1.7174 -14.955,-3.1292 -4.466,-3.9335 -6.457,-6.3861 -10.436,-12.8586 -2.746,-4.465 -2.895,-4.782 -2.881,-6.1061 0.02,-1.5751 0.655,-2.9658 3.063,-6.677 2.098,-3.2331 2.521,-4.1779 3.373,-7.5302 0.953,-3.7469 1.945,-5.7147 3.75,-7.4406 1.906,-1.8215 2.788,-2.3915 5.278,-3.4106 l 2.119,-0.8678 -1.934,-0.5813 c -2.458,-0.7385 -3.802,-1.5197 -5.173,-3.0072 -2.024,-2.1956 -2.929,-4.6031 -3.152,-8.3793 -0.253,-4.2791 0.687,-7.117 3.246,-9.7997 1.577,-1.6537 3.328,-2.6497 5.997,-3.4131 0.979,-0.28 3.476,-1.3209 5.549,-2.3132 l 3.769,-1.8042 h 3.321 c 3.306,0 3.33,0 5.291,0.9872 1.084,0.543 3.63,2.2345 5.657,3.7589 2.027,1.5244 4.349,3.1224 5.159,3.5512 2.705,1.4307 7.427,2.8742 7.427,2.2703 0,-0.2262 -3.647,-5.6485 -4.706,-6.9958 -2.428,-3.0902 -5.129,-5.4242 -7.923,-6.8447 -1.269,-0.6452 -5.07,-1.6173 -6.336,-1.6201 -0.642,0 -1.026,-0.2269 -1.628,-0.9573 -0.91,-1.1045 -1.897,-3.507 -1.897,-4.6203 0,-1.6746 3.916,-11.6211 5.87,-14.9104 2.027,-3.4111 7.434,-8.3534 9.139,-8.3534 1.058,0 6.208,1.8591 9.5,3.4293 6.914,3.2984 12.473,7.6825 16.813,13.2595 3.25,4.1772 7.516,10.9403 10.084,15.9881 3.213,6.3159 6.558,9.4237 12.672,11.773 0.774,0.2975 4.026,1.2053 7.228,2.0175 9.577,2.4299 14.106,4.1542 18.699,7.12 2.353,1.5197 5.854,4.9747 7.229,7.1345 1.943,3.0531 2.337,4.2244 2.359,7.0114 0.02,2.3479 -0.04,2.6314 -0.876,4.3017 -0.727,1.4525 -1.467,2.3214 -3.941,4.6285 -1.675,1.5622 -3.68,3.6357 -4.456,4.6079 -3.731,4.6761 -5.991,11.4981 -6.693,20.1963 -0.451,5.5973 -1.712,8.2025 -6.09,12.5809 -3.959,3.9591 -6.67,5.4908 -10.71,6.0528 -2.156,0.2998 -15.226,0.3159 -22.538,0.028 z m -170.098,-19.7436 c -2.447,-0.4315 -5.763,-1.9494 -7.484,-3.4266 -1.471,-1.2618 -3.1,-3.676 -3.88,-5.7504 -0.998,-2.6539 -1.286,-5.3499 -1.079,-10.1137 0.169,-3.9144 0.226,-4.2671 0.757,-4.6814 l 0.574,-0.448 -0.762,-2.8593 c -2.728,-10.2419 -3.604,-13.9897 -3.604,-15.4154 0,-0.5366 0.192,-1.54 0.427,-2.2298 0.851,-2.4957 3.753,-3.5778 10.156,-3.7867 6.621,-0.2158 12.134,0.9067 15.72,3.2007 2.092,1.338 3.796,2.1478 5.315,2.5249 0.984,0.2445 4.472,0.3074 13.626,0.2457 22.65,-0.1527 22.354,-0.1589 24.726,0.5188 2.806,0.8017 5.174,2.0824 7.639,4.132 1.228,1.0205 2.533,1.8521 3.29,2.0956 1.565,0.5038 7.753,1.3714 13.529,1.8969 11.339,1.0316 15.549,3.9652 15.007,10.4579 -0.34,4.0834 -2.589,10.7251 -4.698,13.8795 -2.938,4.3915 -6.586,6.3215 -11.868,6.2781 -2.8,-0.023 -4.635,-0.3211 -10.981,-1.7837 -9.535,-2.1981 -18.437,-3.8464 -25.89,-4.7939 -4.711,-0.5989 -5.465,-0.4457 -10.533,2.141 -3.975,2.0291 -11.874,5.2615 -16.37,6.6994 -2.867,0.917 -7.324,1.6505 -9.814,1.6154 -0.928,-0.013 -2.639,-0.1917 -3.803,-0.397 z m -36.909,-12.9793 c -6.585,-1.1477 -7.991,-1.6455 -11.245,-3.9802 -4.11,-2.9489 -6.292,-2.9447 -13.401,0.026 -2.816,1.1769 -10.378,3.3578 -10.502,3.0288 -0.19,-0.5054 1.334,-6.2893 2.052,-7.7857 1.366,-2.8473 7.007,-9.2052 10.707,-12.0678 5.937,-4.5932 10.789,-5.5419 25.926,-5.0692 l 7.109,0.222 0.535,1.3229 c 0.383,0.9464 0.572,2.1591 0.662,4.2607 0.156,3.6128 -0.194,5.492 -2.166,11.6327 -0.791,2.4637 -1.595,5.1344 -1.787,5.9347 -0.327,1.3624 -0.432,1.4962 -1.647,2.0983 -1.599,0.7921 -3.278,0.8934 -6.243,0.3767 z m 123.348,-27.995 c -1.062,-0.344 -2.878,-0.7528 -4.034,-0.9084 -1.156,-0.1556 -2.55,-0.5113 -3.097,-0.7904 -1.116,-0.5696 -3.238,-2.721 -4.495,-4.5571 -0.457,-0.6691 -1.475,-1.8002 -2.262,-2.5135 -1.328,-1.205 -1.963,-1.4978 -8.944,-4.1258 -12.795,-4.8162 -33.155,-12.3487 -39.398,-14.5755 l -5.953,-2.1237 -7.143,-0.2021 c -7.313,-0.207 -8.549,-0.3755 -9.765,-1.3316 -1.088,-0.856 -1.456,-1.8475 -1.778,-4.7875 -0.62,-5.6716 0.15,-9.6939 2.928,-15.2842 3.753,-7.5513 9.612,-14.4263 15.017,-17.6185 2.257,-1.333 3.314,-1.7678 6.296,-2.5901 2.11,-0.5818 2.455,-0.6142 3.043,-0.2865 0.364,0.2033 1.609,0.7923 2.766,1.3088 2.594,1.1579 3.569,1.8873 4.875,3.649 4.497,6.0621 10.998,10.8693 22.267,16.4665 4.81,2.3888 8.971,4.8912 16.175,9.7281 7.257,4.8717 8.854,5.7795 14.757,8.3873 6.398,2.8262 7.055,3.1724 8.586,4.5225 1.36,1.199 2.535,3.2898 2.539,4.5183 0,1.0731 -0.351,1.8087 -1.798,3.7201 -1.991,2.6302 -2.384,3.9588 -2.828,9.5564 -0.496,6.2481 -1.367,9.4665 -2.763,10.2137 -0.838,0.4483 -2.933,0.2906 -4.991,-0.3758 z m 118.487,-14.327 c -1.631,-0.4384 -2.793,-1.0734 -6.224,-3.403 -1.31,-0.8892 -3.433,-2.2048 -4.719,-2.9237 -1.286,-0.7189 -2.435,-1.4884 -2.553,-1.7099 -0.119,-0.2216 -1.411,-5.0463 -2.872,-10.7216 -2.539,-9.8602 -5.474,-21.2378 -8.241,-31.9467 -0.705,-2.7276 -1.19,-5.0157 -1.078,-5.0847 0.37,-0.2292 11.292,3.4798 13.277,4.509 1.259,0.653 2.564,1.6284 3.673,2.7465 2.479,2.4996 7.901,8.7566 11.703,13.504 4.269,5.3315 12.692,16.5546 13.309,17.7339 0.619,1.1843 0.825,4.7412 0.402,6.9435 -0.436,2.2709 -2.006,5.3711 -3.461,6.8333 -3.069,3.0863 -8.975,4.659 -13.216,3.5194 z m -103.117,-20.3125 c -0.836,-0.212 -1.878,-0.7551 -2.646,-1.3789 -7.398,-6.0098 -28.42,-25.2376 -36.986,-33.8289 -3.51,-3.5208 -5.746,-5.5282 -7.408,-6.6534 -3.15,-2.1311 -12.094,-7.2522 -12.667,-7.2522 -0.248,0 -0.934,0.2464 -1.525,0.5476 -0.59,0.3012 -1.147,0.4737 -1.237,0.3834 -0.09,-0.09 -0.612,-2.3311 -1.159,-4.9794 -2.969,-14.376 -3.198,-18.4829 -1.257,-22.5658 1.398,-2.9414 4.707,-5.3005 8.326,-5.9364 3.583,-0.6296 4.349,-0.8599 7.005,-2.1081 3.533,-1.6597 5.341,-2.1192 8.324,-2.1152 5.116,0.01 8.921,1.9284 12.096,6.1078 1.925,2.5348 3.152,5.0289 6.334,12.8836 2.668,6.5844 3.739,8.6953 5.937,11.6991 3.994,5.4597 9.889,10.4256 18.21,15.3402 2.504,1.479 2.45,1.4554 7.013,3.0779 1.802,0.6409 3.886,1.4913 4.63,1.8898 2.061,1.1035 5.811,4.9221 6.702,6.8238 0.714,1.5263 0.736,1.7048 0.725,5.9392 -0.01,5.2262 -0.54,7.7899 -2.364,11.5094 -1.88,3.8363 -4.372,6.5694 -7.958,8.7295 -2.998,1.8055 -7.269,2.6038 -10.095,1.887 z m -117.72,-15.771 c -3.534,-0.9264 -6.203,-2.651 -9.489,-6.1327 -2.092,-2.2159 -6.093,-5.4719 -8.467,-6.8889 -6.332,-3.7806 -12.216,-5.5327 -20.168,-6.0057 -4.545,-0.2703 -5.893,-0.6555 -5.893,-1.6839 0,-1.1537 0.888,-3.8949 1.416,-4.3697 0.616,-0.5541 5.024,-2.4465 8.653,-3.715 5.515,-1.9275 12.513,-2.6098 24.062,-2.346 10.372,0.2369 14.277,0.8522 18.696,2.9455 3.185,1.5088 5.569,3.7574 6.407,6.0426 1.358,3.7036 0.23,8.4259 -3.017,12.6239 -0.619,0.8004 -1.859,2.8244 -2.755,4.4979 -2.862,5.3428 -4.643,6.2912 -9.445,5.032 z m 35.622,-64.181 c -2.22,-0.6145 -3.202,-1.3931 -8.069,-6.3967 -2.474,-2.5432 -6.641,-6.7874 -9.261,-9.4316 -4.757,-4.8019 -4.767,-4.8108 -9.153,-7.4071 -2.416,-1.4297 -5.095,-3.1215 -5.954,-3.7595 -1.585,-1.1774 -4.604,-4.4608 -4.604,-5.007 0,-0.3129 8.185,-4.379 9.789,-4.8633 3.977,-1.2003 12.015,-1.4702 16.724,-0.5615 6.814,1.3149 12.495,3.9432 21.313,9.8594 6.795,4.5593 9.876,7.2537 10.36,9.0611 0.378,1.4097 0.343,4.0118 -0.07,5.1594 -0.702,1.9538 -5.471,7.8766 -8.399,10.4299 -0.922,0.8045 -2.396,1.8508 -3.274,2.325 -1.519,0.8203 -1.752,0.8655 -4.772,0.9285 -2.211,0.046 -3.617,-0.056 -4.631,-0.3366 z"
       id="path45367" /></g></svg>
