<?xml version="1.0" encoding="UTF-8" standalone="no"?>
<!-- Created with Inkscape (http://www.inkscape.org/) -->

<svg
   width="1687.1212"
   height="971.39844"
   viewBox="0 0 446.38414 257.01584"
   version="1.1"
   id="svg1"
   xml:space="preserve"
   inkscape:version="1.4.3 (0d15f75042, 2025-12-25)"
   sodipodi:docname="pokemontcg.svg"
   inkscape:export-filename="pokemontcg.png"
   inkscape:export-xdpi="95.999977"
   inkscape:export-ydpi="95.999977"
   xmlns:inkscape="http://www.inkscape.org/namespaces/inkscape"
   xmlns:sodipodi="http://sodipodi.sourceforge.net/DTD/sodipodi-0.dtd"
   xmlns="http://www.w3.org/2000/svg"
   xmlns:svg="http://www.w3.org/2000/svg"><sodipodi:namedview
     id="namedview1"
     pagecolor="#ffffff"
     bordercolor="#000000"
     borderopacity="0.25"
     inkscape:showpageshadow="2"
     inkscape:pageopacity="0.0"
     inkscape:pagecheckerboard="0"
     inkscape:deskcolor="#d1d1d1"
     inkscape:document-units="px"
     inkscape:zoom="0.16"
     inkscape:cx="-33375"
     inkscape:cy="28884.375"
     inkscape:window-width="1920"
     inkscape:window-height="995"
     inkscape:window-x="0"
     inkscape:window-y="0"
     inkscape:window-maximized="1"
     inkscape:current-layer="layer1"
     showguides="false"><inkscape:page
       x="0"
       y="0"
       width="446.38412"
       height="257.01584"
       id="page3"
       margin="0"
       bleed="0" /></sodipodi:namedview><defs
     id="defs1" /><g
     inkscape:label="Layer 1"
     inkscape:groupmode="layer"
     id="layer1"
     transform="translate(11993.427,-7407.7622)"><path
       style="fill:#000000"
       d="m -11774.759,7664.5538 c -0.655,-0.1124 -2.381,-0.344 -3.836,-0.5146 -2.471,-0.2897 -3.364,-0.4067 -8.203,-1.0738 -2.041,-0.2815 -8.025,-1.1773 -10.715,-1.6043 -0.946,-0.1501 -2.494,-0.3951 -3.44,-0.5444 -0.946,-0.1492 -2.315,-0.3814 -3.042,-0.5159 -0.728,-0.1345 -2.693,-0.4927 -4.366,-0.7961 -4.436,-0.8042 -6.011,-1.123 -13.557,-2.744 -42.44,-9.1178 -79.065,-23.7082 -111.512,-44.4237 -11.175,-7.1344 -18.644,-12.9664 -26.634,-20.7967 -16.873,-16.5354 -27.516,-36.1116 -31.645,-58.2038 -1.528,-8.1748 -1.716,-10.5915 -1.718,-22.1099 0,-10.2124 0.03,-11.0494 0.614,-14.2875 1.605,-8.9373 4.011,-15.1568 8.569,-22.1472 6.7,-10.276 15.691,-18.3802 30.23,-27.2478 11.463,-6.9918 22.561,-11.7998 38.1,-16.5055 4.718,-1.4289 15.319,-4.1939 19.691,-5.1359 1.248,-0.269 3.698,-0.8024 5.444,-1.1856 6.256,-1.3725 16.899,-3.4507 31.221,-6.0968 2.765,-0.5108 6.754,-1.2786 8.864,-1.7061 10.685,-2.1652 17.57,-3.3115 25.4,-4.2292 5.815,-0.6816 6.885,-0.7982 9.657,-1.0524 8.659,-0.7938 14.389,-1.2079 29.633,-2.1416 13.029,-0.798 19.067,-1.2152 23.4,-1.6166 6.279,-0.5817 35.99,1.1836 54.388,3.2317 9.628,1.0718 20.562,2.6411 28.707,4.1201 9.009,1.6359 13.902,2.6673 22.357,4.7126 24.254,5.8667 48.436,15.0116 64.494,24.3898 11.081,6.4714 27.244,19.1497 35.209,27.6178 9.094,9.6684 12.36,22.4252 9.274,36.2167 -1.769,7.9009 -5.709,15.6299 -11.318,22.1993 -2.131,2.4952 -8.966,9.2707 -11.934,11.8299 -3.514,3.0305 -8.12,6.4071 -12.178,8.9293 -10.819,6.7232 -23.469,11.9256 -36.837,15.1491 -5.469,1.3189 -18.487,3.6871 -27.582,5.0176 -0.654,0.096 -1.905,0.2845 -2.778,0.4193 -1.472,0.2273 -3.114,0.4637 -7.143,1.0283 -10.937,1.5324 -24.06,3.795 -25.499,4.3961 -1.185,0.4951 -4.077,2.5637 -5.722,4.0933 -0.728,0.6764 -2.633,2.2158 -4.234,3.421 -1.6,1.2053 -3.784,2.8993 -4.853,3.7645 -2.775,2.2473 -5.516,4.0521 -7.092,4.6704 -0.749,0.2938 -2.905,0.7135 -4.791,0.9328 -9.9,1.1511 -18.072,4.0651 -25.74,9.1791 -4.485,2.9913 -9.835,8.3121 -12.745,12.6762 -5.306,7.9562 -8.146,16.3259 -9.204,27.1198 -0.401,4.0954 -1.245,9.6723 -1.844,12.1965 -1.276,5.3736 -3.637,8.0668 -8.088,9.2261 -1.627,0.4238 -4.966,0.4915 -7.002,0.1421 z m 33.734,-97.4004 c 4.247,-0.704 10.583,-5.0924 11.899,-8.2415 0.694,-1.662 1.017,-12.3391 0.846,-27.9738 -0.272,-24.8455 -0.558,-26.9586 -4.09,-30.1864 -2.529,-2.3111 -5.711,-2.8201 -12.243,-1.9581 -1.665,0.2196 -10.468,1.2316 -19.563,2.2487 -25.177,2.8158 -41.128,4.895 -45.715,5.9588 -2.605,0.6042 -5.506,1.6611 -7.995,2.913 -7.66,3.8531 -12.658,9.9292 -14.602,17.7547 -0.796,3.2044 -0.86,10.5195 -0.12,13.7203 1.382,5.9757 4.242,10.5712 8.696,13.9709 4.557,3.4784 9.686,5.639 17.006,7.1627 16.15,3.3619 56.449,6.1944 65.881,4.6307 z m -117.029,-22.9631 c 0.337,-0.1328 1.294,-0.8175 2.127,-1.5214 6.28,-5.3078 6.377,-5.4092 12.462,-13.0359 12.965,-16.2483 16.699,-20.3608 23.595,-25.9818 14.042,-11.4478 32.083,-21.1935 50.8,-27.4426 5.18,-1.7299 14.12,-4.3 17.696,-5.0881 2.576,-0.5675 1.122,-0.7335 -6.584,-0.7516 -6.096,-0.014 -14.129,0.3828 -18.032,0.8916 -0.56,0.073 -2.09,0.2649 -3.399,0.4266 -6.803,0.8395 -15.232,2.572 -21.826,4.4866 -19.123,5.5519 -34.514,13.2743 -51.199,25.6886 -7.963,5.9243 -10.625,10.5359 -12.662,21.932 -0.587,3.2829 -1.323,11.663 -1.267,14.4198 0.05,2.3921 1.924,4.8946 4.272,5.7007 1.596,0.5482 3.069,0.6492 4.017,0.2755 z m -44.366,-6.8591 c 1.635,-0.997 7.593,-9.2296 11.903,-16.4473 7.436,-12.45 10.605,-16.988 15.216,-21.7854 3.51,-3.6513 11.106,-10.5416 14.778,-13.4042 1.213,-0.9458 2.938,-2.3031 3.834,-3.0161 1.772,-1.4101 10.214,-7.0495 13.403,-8.9536 11.053,-6.5988 24.497,-12.2145 36.914,-15.4189 2.035,-0.5251 3.801,-1.0547 3.925,-1.1768 0.36,-0.3553 -4.072,-0.6177 -7.446,-0.4409 -6.527,0.3418 -11.389,0.6733 -13.682,0.9327 -3.31,0.3748 -6.467,0.7708 -7.408,0.9295 -0.437,0.074 -1.627,0.2677 -2.646,0.4311 -7.623,1.2233 -17.466,3.8232 -25.267,6.6739 -10.193,3.7245 -24.575,11.6265 -31.75,17.4446 -0.51,0.413 -1.709,1.374 -2.666,2.1357 -5.916,4.7101 -11.144,9.8044 -12.81,12.4828 -3.785,6.0864 -5.615,15.0077 -5.755,28.0604 -0.07,6.1255 -0.05,6.3963 0.535,7.6584 0.915,1.9853 1.757,2.9338 3.278,3.6913 1.738,0.8665 4.399,0.962 5.644,0.2028 z m -41.856,-13.4024 c 2.35,-0.612 4.119,-1.6402 6.08,-3.5334 3.401,-3.2827 7.22,-8.981 11.164,-16.6547 3.196,-6.2191 5.627,-9.2595 14.549,-18.1947 9.957,-9.9715 19.186,-17.0807 30.965,-23.8525 10.022,-5.7619 22.132,-10.9021 32.543,-13.8134 1.601,-0.4476 3.965,-1.1381 5.254,-1.5345 l 2.343,-0.7206 -1.285,-0.3696 c -0.985,-0.2834 -3.507,-0.3756 -10.81,-0.3951 -8.659,-0.023 -9.897,0.03 -13.626,0.5838 -19.582,2.9095 -35.264,8.7158 -55.214,20.4438 -5.186,3.0488 -9.251,5.926 -11.696,8.2794 -8.082,7.7792 -14.021,20.3282 -16.911,35.7364 -1.653,8.8117 -1.74,10.0999 -0.779,11.5121 0.796,1.17 1.711,1.814 3.413,2.4014 1.736,0.5995 2.098,0.6096 4.01,0.1116 z m -29.458,-14.6824 c 1.223,-0.6236 4.074,-4.3303 9.004,-11.7037 2.618,-3.9145 10.519,-14.4152 13.595,-18.0661 3.989,-4.7342 7.033,-7.9898 10.382,-11.1019 8.326,-7.7368 19.811,-14.3887 43.624,-25.2667 7.283,-3.3269 16.843,-7.8507 18.087,-8.5583 l 1.153,-0.6562 -1.383,-0.1902 c -1.5,-0.2062 -8.982,0.01 -14.285,0.4127 -25.489,1.9362 -47.52,9.934 -65.186,23.6648 -5.653,4.3939 -15.163,13.6331 -17.222,16.7333 -2.809,4.2279 -4.478,10.952 -5.452,21.9597 -0.447,5.0632 -0.258,8.054 0.618,9.7574 1.557,3.0258 4.545,4.301 7.065,3.0152 z"
       id="path45367" /></g></svg>
